<svg version="1.2" xmlns="http://www.w3.org/2000/svg" viewBox="0 0 800 200" width="800" height="200">
	<style>
		.s0 { fill: none;stroke: #000000;stroke-miterlimit:10;stroke-width: 2 } 
	</style>
	<g id="Camada 1">
		<g id="&lt;Group&gt;">
			<g id="&lt;Group&gt;">
				<g id="&lt;Group&gt;">
					<path id="&lt;Compound Path&gt;" class="s0" d="m272.58 139.56q-12.21 9.88-35.76 9.88-17.3 0-28.85-6.46-11.56-6.47-17.22-17.67-5.67-11.19-5.67-25.72 0-13.81 5.67-24.86 5.66-11.04 17.29-17.58 11.63-6.54 28.78-6.54 22.53 0 34.81 9.52 12.28 9.52 14.75 27.39h-19.47q-2.04-11.19-9.38-16.57-7.34-5.37-20.42-5.37-15.55 0-23.69 8.72-8.14 8.72-8.14 25.29 0 17.15 7.92 26.02 7.92 8.86 23.48 8.86 13.66 0 21.29-5.96 7.63-5.96 9.37-18.02h19.77q-2.32 19.19-14.53 29.07z"/>
					<path id="&lt;Compound Path&gt;" fill-rule="evenodd" class="s0" d="m336.38 146.54q-6.83 3.34-16.86 3.34-11.19 0-18.09-5.52-6.91-5.53-6.91-15.56 0-9.01 5.67-14.39 5.67-5.37 19.19-7.7l18.17-2.91q5.81-1.01 7.99-2.61 2.18-1.6 2.18-5.24 0-4.94-3.63-7.7-3.64-2.76-12.36-2.76-9.16 0-13.37 3.63-4.22 3.64-4.22 9.89h-18.02q0-12.21 9.38-19.12 9.37-6.9 26.09-6.9 16.57 0 24.63 6.32 8.07 6.33 8.36 17.95l1.02 50.73h-16.28l-0.44-10.47h-2.03q-3.64 5.67-10.47 9.02zm-11.19-8.73q6.98 0.01 12.14-2.98 5.16-2.97 7.85-8.06 2.69-5.09 2.69-11.05v-3.92l-21.81 4.21q-12.93 2.47-12.93 11.48 0 10.33 12.06 10.32z"/>
					<path id="&lt;Compound Path&gt;" class="s0" d="m373.3 97.12l-0.29-13.81h15.41v-11.19q0-7.27 1.89-11.56 1.88-4.28 6.61-6.39 4.72-2.11 13.15-2.11h23.11v14.24h-26.3v17.01h23.69v13.66l-23.55 0.15v50.87h-19.18v-42.59q-0.01-5.08 4.07-6.1l2.76-0.58v-1.6z"/>
					<path id="&lt;Compound Path&gt;" fill-rule="evenodd" class="s0" d="m455.71 144.28q-8.86-5.16-13.08-13.8-4.21-8.65-4.21-19.41 0-11.04 4.36-19.77 4.36-8.72 13.3-13.73 8.93-5.02 22.02-5.02 19.18 0 28.56 10.25 9.37 10.25 9.37 26.96 0 3.78-0.29 5.23h-59.01q1.31 22.1 21.8 22.1 8.14 0 12.94-3.27 4.79-3.27 6.54-9.09h17.88q-1.89 10.76-11.05 17.74-9.16 6.97-26.74 6.97-13.52 0-22.39-5.16zm42.59-40.19q-0.58-9.44-5.74-14.39-5.16-4.94-14.17-4.94-9.31 0-14.76 4.87-5.45 4.87-6.75 14.46zm6.97-62.93l-24.13 28.63-7.41-5.52 21.22-29.94z"/>
					<path id="&lt;Compound Path&gt;" class="s0" d="m524.82 129.02q2.84-2.83 7.2-2.83h4.36q4.36 0 7.19 2.83 2.84 2.84 2.84 7.2v1.74q0 4.36-2.84 7.19-2.83 2.84-7.19 2.84h-4.36q-4.36 0-7.2-2.84-2.83-2.83-2.83-7.19v-1.74q0-4.36 2.83-7.2z"/>
					<path id="&lt;Compound Path&gt;" class="s0" d="m584.34 75.61q6.25-3.2 14.39-3.2 14.1 0 21.73 7.77 7.63 7.78 7.63 22.46v45.35h-18.46v-42.3q0-9.15-4.65-13.88-4.65-4.72-12.93-4.72-9.16 0-14.39 5.67-5.23 5.67-5.23 16.57v38.66h-18.61v-73.69h18.61v10.32h1.74q3.92-5.81 10.17-9.01z"/>
					<path id="&lt;Compound Path&gt;" fill-rule="evenodd" class="s0" d="m652.22 144.28q-8.87-5.16-13.08-13.8-4.22-8.65-4.21-19.41 0-11.04 4.36-19.77 4.36-8.72 13.29-13.73 8.94-5.02 22.03-5.02 19.18 0 28.56 10.25 9.37 10.25 9.37 26.96 0 3.78-0.29 5.23h-59.01q1.31 22.1 21.8 22.1 8.14 0 12.94-3.27 4.79-3.27 6.54-9.09h17.87q-1.89 10.76-11.04 17.74-9.16 6.97-26.74 6.97-13.52 0-22.39-5.16zm42.59-40.19q-0.58-9.44-5.74-14.39-5.16-4.94-14.17-4.94-9.31 0-14.76 4.87-5.45 4.87-6.76 14.46z"/>
					<path id="&lt;Compound Path&gt;" class="s0" d="m715.01 87.96l0.29-13.66h21.37v-1.75l-5.52-2.18q-1.89-0.72-2.98-2.32-1.09-1.6-1.09-3.64v-13.22h21.95v22.96l23.54 0.15v13.66h-23.69v45.78h25v14.25h-21.8q-8.43 0-13.16-2.11-4.72-2.11-6.61-6.39-1.89-4.29-1.89-11.56v-39.97z"/>
				</g>
			</g>
		</g>
		<g id="&lt;Group&gt;">
			<path id="&lt;Path&gt;" class="s0" d="m119.94 150.52q1.68 1.32 3.38 2.5c14.9 10.48 29.8 13.7 36.66 6.84 7.42-7.42 3.02-24.26-9.6-40.36 2.08-6.22 3.22-12.88 3.22-19.8 0-34.28-27.8-62.08-62.1-62.08-5.12 0-10.12 0.62-14.88 1.8l64.12 58.74-5.76 5.76-27.22 27.22-11.64-10.14 21.02-21.02-25.84-25.84-24.92-20.58-0.36-0.28q-3.85-3.34-7.76-6.02c-14.68-10.12-29.26-13.14-36-6.38-7.46 7.46-2.96 24.48 9.84 40.66-1.96 6.4-2.9 13.24-2.66 20.36 1.1 32.18 27.28 58.56 59.48 59.84 6.82 0.28 13.4-0.54 19.58-2.3l-15.12-13.9-49.26-45.34 3.24-3.3 28.04-28.58 10.54 8.94v0.02l1.2 1.02-0.42 0.42-21.42 21.42z"/>
		</g>
	</g>
</svg>