<svg version="1.2" xmlns="http://www.w3.org/2000/svg" viewBox="0 0 160 160" width="160" height="160">
	<style>
		.s0 { fill: #000000 } 
	</style>
	<g id="Camada 1">
		<g id="&lt;Group&gt;">
			<path id="&lt;Path&gt;" class="s0" d="m108.94 130.52q1.68 1.32 3.38 2.5c14.9 10.48 29.8 13.7 36.66 6.84 7.42-7.42 3.02-24.26-9.6-40.36 2.08-6.22 3.22-12.88 3.22-19.8 0-34.28-27.8-62.08-62.1-62.08-5.12 0-10.12 0.62-14.88 1.8l64.12 58.74-5.76 5.76-27.22 27.22-11.64-10.14 21.02-21.02-25.84-25.84-24.92-20.58-0.36-0.28q-3.85-3.34-7.76-6.02c-14.68-10.12-29.26-13.14-36-6.38-7.46 7.46-2.96 24.48 9.84 40.66-1.96 6.4-2.9 13.24-2.66 20.36 1.1 32.18 27.28 58.56 59.48 59.84 6.82 0.28 13.4-0.54 19.58-2.3l-15.12-13.9-49.26-45.34 3.24-3.3 28.04-28.58 10.54 8.94v0.02l1.2 1.02-0.42 0.42-21.42 21.42z"/>
		</g>
	</g>
</svg>